<svg width="92" height="25" xmlns="http://www.w3.org/2000/svg"><defs><linearGradient x1="21.178%" y1="82.829%" x2="37.858%" y2="60.128%" id="a"><stop stop-color="#C74B1E" offset="0%"/><stop stop-color="#B84528" offset="100%"/></linearGradient></defs><g fill="none" fill-rule="evenodd"><path d="M43.445 11.067v8.778c0 .693-.567 1.26-1.281 1.26a1.268 1.268 0 01-1.281-1.26v-.567c-.714 1.05-1.743 1.953-3.465 1.953-2.499 0-3.948-1.68-3.948-4.263v-5.901c0-.714.567-1.281 1.26-1.281.714 0 1.281.567 1.281 1.281v5.145c0 1.722.861 2.688 2.373 2.688 1.47 0 2.499-1.008 2.499-2.73v-5.103c0-.714.567-1.281 1.281-1.281.693 0 1.281.567 1.281 1.281zm3.171 12.138V11.067c0-.714.546-1.281 1.26-1.281s1.281.567 1.281 1.281v.693c.819-1.155 1.974-2.079 3.78-2.079 2.604 0 5.145 2.058 5.145 5.754v.042c0 3.675-2.52 5.754-5.145 5.754-1.848 0-3.003-.924-3.78-1.953v3.927c0 .714-.567 1.26-1.281 1.26a1.25 1.25 0 01-1.26-1.26zm5.712-4.179c1.743 0 3.171-1.365 3.171-3.549v-.042c0-2.142-1.449-3.549-3.171-3.549-1.722 0-3.234 1.428-3.234 3.549v.042c0 2.121 1.512 3.549 3.234 3.549zm8.946.819v-7.749h-.441a1.058 1.058 0 01-1.071-1.05c0-.588.483-1.071 1.071-1.071h.441v-.819c0-1.218.315-2.142.903-2.73.588-.588 1.407-.882 2.499-.882.504 0 .924.042 1.281.105.462.063.882.483.882 1.05 0 .588-.483 1.071-1.071 1.05a4.091 4.091 0 00-.525-.042c-.966 0-1.47.525-1.47 1.68v.609h1.974c.609 0 1.071.462 1.071 1.05 0 .588-.483 1.05-1.071 1.05h-1.932v7.749c0 .693-.567 1.26-1.281 1.26-.693 0-1.26-.567-1.26-1.26zm12.39 1.407c-3.381 0-5.88-2.583-5.88-5.733v-.042c0-3.171 2.52-5.796 5.922-5.796 3.402 0 5.901 2.583 5.901 5.754v.042c0 3.15-2.52 5.775-5.943 5.775zm.042-2.226c2.058 0 3.36-1.596 3.36-3.507v-.042c0-1.953-1.407-3.57-3.402-3.57-2.037 0-3.339 1.596-3.339 3.528v.042c0 1.932 1.407 3.549 3.381 3.549zm7.455 1.008c0-.357.126-.63.357-.882l3.15-3.78-2.919-3.465c-.273-.336-.42-.63-.42-.966 0-.714.546-1.176 1.176-1.176.504 0 .861.231 1.176.63l2.499 3.276 2.541-3.255c.294-.378.651-.651 1.092-.651.672 0 1.197.483 1.197 1.113 0 .357-.147.609-.357.861L87.65 15.33l3.108 3.675c.273.336.42.63.42.966 0 .714-.546 1.176-1.176 1.176-.504 0-.861-.231-1.176-.651l-2.688-3.465-2.688 3.465c-.294.357-.651.651-1.113.651-.651 0-1.176-.483-1.176-1.113z" fill="#DB542F"/><path d="M21.834 11.26c-.642.467-1.229.26-1.49.172-.26-.087-.826-.511-1.25-1.15-.424-.64-.667-1.26-.92-1.907-.51-1.307-.69-2.396-.78-2.657-.09-.26-.127-.375-.307-.375s-.44.245-.547.33c-.106.083-2.095 2.228-2.371 2.426-.277.197-.627.316-.88.316-.255 0-2.475-.04-2.758-.04-.282 0-.536-.123-.805-.276-.268-.154-2.28-2.47-2.574-2.642-.294-.172-.475-.081-.536.091-.04.115-.11.497-.206 1.145-.69 4.598-1.017 6.9-.983 6.908.41.088 1.534.584 2.458 1.077.924.493 2.62 1.734 3.43 2.524.466.455 1.202.427 1.651 0 .614-.584 2.414-2.056 3.352-2.524.938-.468 2.325-1.427 5.516-1.58 6.97-.332 9.524 6.073 9.682 6.37.158.297.462 1.176.462 1.322 0 .145-.835-.678-3.23-.708-1.147-.014-1.805.04-2.457.136-.709.104-1.455.262-3.29.701-1.618.388-4.761 1.206-5.788 1.392-.537.097-1.53.303-2.024.378-.494.075-.926.177-2.223.256-5.31.325-8.012-1.82-9.88-3.657-1.019-1.003-2.821-3.65-3.05-7.07-.192-2.844.77-6.316 3.576-8.966 6.179-5.836 13.56-2.027 13.866-1.82.306.205 1.376.899 1.947 1.496.57.598 1.365 1.64 1.66 2.184.295.542 1.002 1.97 1.226 3.263.085.492.184 1.35.058 1.906-.127.557-.314.817-.535.979zm3.512 7.857c.148-.151 1.124-.379 2.292-.352 1.112.025 2.445.308 2.445.251 0-.054-.96-1.76-2.183-2.795-.69-.584-.878-.655-1.294-.932-.326-.217-.588-.415-.717-.352-.097.047.514.744.636 1.284.162.717-.12 1.354-.263 1.613-.373.672-.84.935-.916 1.035-.105.138-.078.327 0 .248z" fill="#DB542F" fill-rule="nonzero"/><path d="M6.683 5.438a.294.294 0 00-.067.11c-.04.115-.11.497-.206 1.145-.69 4.598-1.017 6.9-.983 6.908.41.088 1.534.584 2.458 1.077.924.493 2.62 1.734 3.43 2.524.466.455 1.202.427 1.651 0 .614-.584 2.414-2.056 3.352-2.524.807-.402 1.945-1.168 4.278-1.471a.165.165 0 01-.018.012c-1.205.689-4.287 2.908-5.444 4.133-1.633 1.73-2.55 2.743-2.776 3.064-.768 1.09-1.403 1.09-2.187 0-.273-.38-.923-1.844-2.61-3.064-1.642-1.188-3.959-2.062-4.245-2.202-.286-.139-.83.028-.286-1.006.545-1.035 3.335-8.42 3.597-8.718.01-.011.03-.007.056.012z" fill="url(#a)"/><path d="M7.767 11.832a2.25 2.25 0 01.595 0c.265.039.815.27.984.405.058.045.777.641.846 1.101.022.144 0 .144 0 .19 0 .03-.17.03-.512 0-.598-.173-1.011-.364-1.238-.574-.34-.316-.635-.709-.675-.916-.027-.137-.027-.206 0-.206zM16.472 11.84a2.25 2.25 0 00-.595 0c-.265.04-.815.27-.984.406-.058.045-.777.641-.846 1.101-.022.144 0 .144 0 .19 0 .03.17.03.512 0 .599-.173 1.011-.364 1.238-.574.34-.316.635-.709.675-.916.027-.137.027-.206 0-.206zM11.692 15.357c-.09 0-.29.03-.383.087-.094.055-.152.09-.235.204-.084.115-.072.217-.034.355.037.139.735.849.85.923.117.075.376.075.48-.005.103-.08.813-.785.851-.924.038-.138.05-.24-.034-.355-.084-.114-.142-.149-.235-.204a.973.973 0 00-.384-.087l-.876.006z" fill="#DB542F"/></g></svg>